<svg xmlns="http://www.w3.org/2000/svg" width="320" height="320" viewBox="170 0 500 378.302">
  <g id="Group_17" data-name="Group 17" transform="translate(-1460.883 -79.196) rotate(45)">
    <g id="Group_16" data-name="Group 16" transform="translate(1222.686 -1110.654)">
      <ellipse id="Ellipse_2" data-name="Ellipse 2" cx="4" cy="4.5" rx="4" ry="4.5" transform="translate(0.314 -0.346)" fill="#24b855"/>
      <ellipse id="Ellipse_2-2" data-name="Ellipse 2" cx="4" cy="4.5" rx="4" ry="4.5" transform="translate(43.314 -0.346)" fill="#24b855"/>
      <circle id="Ellipse_2-3" data-name="Ellipse 2" cx="4.5" cy="4.5" r="4.5" transform="translate(86.314 -0.346)" fill="#24b855"/>
      <circle id="Ellipse_2-4" data-name="Ellipse 2" cx="4.5" cy="4.5" r="4.5" transform="translate(129.314 -0.346)" fill="#24b855"/>
      <circle id="Ellipse_2-5" data-name="Ellipse 2" cx="4.5" cy="4.5" r="4.5" transform="translate(172.314 -0.346)" fill="#24b855"/>
      <ellipse id="Ellipse_2-6" data-name="Ellipse 2" cx="4" cy="4.5" rx="4" ry="4.5" transform="translate(216.314 -0.346)" fill="#24b855"/>
      <ellipse id="Ellipse_2-7" data-name="Ellipse 2" cx="4" cy="4.5" rx="4" ry="4.5" transform="translate(259.314 -0.346)" fill="#24b855"/>
            <circle id="Ellipse_2-9" data-name="Ellipse 2" cx="4" cy="4" r="4" transform="translate(43.314 43.654)" fill="#24b855"/>
      <ellipse id="Ellipse_2-10" data-name="Ellipse 2" cx="4.5" cy="4" rx="4.5" ry="4" transform="translate(86.314 43.654)" fill="#24b855"/>
      <ellipse id="Ellipse_2-11" data-name="Ellipse 2" cx="4.5" cy="4" rx="4.5" ry="4" transform="translate(129.314 43.654)" fill="#24b855"/>
      <ellipse id="Ellipse_2-12" data-name="Ellipse 2" cx="4.5" cy="4" rx="4.5" ry="4" transform="translate(172.314 43.654)" fill="#24b855"/>
      <circle id="Ellipse_2-13" data-name="Ellipse 2" cx="4" cy="4" r="4" transform="translate(216.314 43.654)" fill="#24b855"/>
      <circle id="Ellipse_2-14" data-name="Ellipse 2" cx="4" cy="4" r="4" transform="translate(259.314 43.654)" fill="#24b855"/>
      <ellipse id="Ellipse_2-17" data-name="Ellipse 2" cx="4.5" cy="4" rx="4.5" ry="4" transform="translate(86.314 86.654)" fill="#24b855"/>
      <ellipse id="Ellipse_2-18" data-name="Ellipse 2" cx="4.5" cy="4" rx="4.5" ry="4" transform="translate(129.314 86.654)" fill="#24b855"/>
      <ellipse id="Ellipse_2-19" data-name="Ellipse 2" cx="4.5" cy="4" rx="4.5" ry="4" transform="translate(172.314 86.654)" fill="#24b855"/>
      <circle id="Ellipse_2-20" data-name="Ellipse 2" cx="4" cy="4" r="4" transform="translate(216.314 86.654)" fill="#24b855"/>
      <circle id="Ellipse_2-21" data-name="Ellipse 2" cx="4" cy="4" r="4" transform="translate(259.314 86.654)" fill="#24b855"/>
      <ellipse id="Ellipse_2-25" data-name="Ellipse 2" cx="4.5" cy="4" rx="4.5" ry="4" transform="translate(129.314 129.654)" fill="#24b855"/>
      <ellipse id="Ellipse_2-26" data-name="Ellipse 2" cx="4.5" cy="4" rx="4.5" ry="4" transform="translate(172.314 129.654)" fill="#24b855"/>
      <circle id="Ellipse_2-27" data-name="Ellipse 2" cx="4" cy="4" r="4" transform="translate(216.314 129.654)" fill="#24b855"/>
      <circle id="Ellipse_2-28" data-name="Ellipse 2" cx="4" cy="4" r="4" transform="translate(259.314 129.654)" fill="#24b855"/>
      <circle id="Ellipse_2-33" data-name="Ellipse 2" cx="4.5" cy="4.5" r="4.5" transform="translate(172.314 172.654)" fill="#24b855"/>
      <ellipse id="Ellipse_2-34" data-name="Ellipse 2" cx="4" cy="4.5" rx="4" ry="4.5" transform="translate(216.314 172.654)" fill="#24b855"/>
      <ellipse id="Ellipse_2-35" data-name="Ellipse 2" cx="4" cy="4.5" rx="4" ry="4.5" transform="translate(259.314 172.654)" fill="#24b855"/>
      <ellipse id="Ellipse_2-41" data-name="Ellipse 2" cx="4" cy="4.5" rx="4" ry="4.5" transform="translate(216.314 215.654)" fill="#24b855"/>
      <ellipse id="Ellipse_2-42" data-name="Ellipse 2" cx="4" cy="4.5" rx="4" ry="4.5" transform="translate(259.314 215.654)" fill="#24b855"/>
      <ellipse id="Ellipse_2-49" data-name="Ellipse 2" cx="4" cy="4.5" rx="4" ry="4.5" transform="translate(259.314 258.654)" fill="#24b855"/>
    </g>
  </g>
</svg>
